<?xml version="1.0" encoding="UTF-8" standalone="no"?><svg width="116" height="24" viewBox="0 0 116 24" fill="none" xmlns="http://www.w3.org/2000/svg">
<path d="M24 12C24 18.6273 18.6273 24 12 24C5.37267 24 0 18.6273 0 12C0 5.37267 5.37267 0 12 0C18.6273 0 24 5.37267 24 12Z" fill="#FFCC4D"/>
<path fill-rule="evenodd" clip-rule="evenodd" d="M0.826653 7.34534C0.986653 7.50467 1.78532 7.98334 1.94465 8.462C2.10465 8.94 2.42465 11.6513 3.38332 12.4493C4.37199 13.2707 8.10132 12.9653 8.81532 12.6093C10.4133 11.8127 10.6093 9.58867 10.892 8.462C11.0513 7.824 12.01 7.824 12.01 7.824C12.01 7.824 12.9687 7.824 13.1287 8.46134C13.4113 9.58867 13.6087 11.8127 15.2053 12.6087C15.92 12.9653 19.6493 13.2713 20.6393 12.45C21.5967 11.652 21.916 8.94067 22.076 8.462C22.2347 7.984 23.0347 7.50534 23.194 7.346C23.3547 7.18667 23.3547 6.54867 23.194 6.38867C22.8747 6.07 19.1047 5.786 15.0453 6.22934C14.2353 6.318 13.9273 6.548 12.0093 6.548C10.0927 6.548 9.78332 6.31734 8.97399 6.22934C4.91732 5.78534 1.14665 6.06934 0.826653 6.388C0.66732 6.54734 0.66732 7.186 0.826653 7.34534V7.34534Z" fill="#292F33"/>
<path d="M18.2233 15.7527C18.1659 15.701 18.0923 15.6708 18.0151 15.6673C17.9379 15.6637 17.8619 15.6871 17.8 15.7333C17.774 15.7527 15.1853 17.6667 12 17.6667C8.82266 17.6667 6.22533 15.7527 6.2 15.7333C6.13818 15.6869 6.06217 15.6634 5.98495 15.6669C5.90774 15.6704 5.83413 15.7005 5.77671 15.7523C5.7193 15.804 5.68165 15.8741 5.67021 15.9506C5.65877 16.027 5.67425 16.105 5.714 16.1713C5.8 16.3147 7.85866 19.6667 12 19.6667C16.1413 19.6667 18.2007 16.3147 18.286 16.1713C18.3258 16.1051 18.3413 16.0271 18.3299 15.9507C18.3184 15.8743 18.2808 15.8043 18.2233 15.7527Z" fill="#664500"/>
<path d="M44.5455 12.1705C44.4261 9.40057 42.125 7.73864 38.3409 7.73864C34.5994 7.73864 32.2898 9.27273 32.3068 12C32.2898 14.0625 33.6278 15.3835 36.2955 15.8523L38.6136 16.2614C39.6364 16.4489 40.0966 16.7216 40.1136 17.2159C40.0966 17.7614 39.4744 18.0682 38.6136 18.0682C37.5483 18.0682 36.7983 17.608 36.6705 16.7727H32C32.2557 19.4574 34.5739 21.2386 38.5795 21.2386C42.2017 21.2386 44.8693 19.4744 44.8864 16.6705C44.8693 14.7358 43.5739 13.6108 40.8977 13.125L38.2386 12.6477C37.2415 12.4688 36.9602 12.1108 36.9773 11.7273C36.9602 11.1818 37.6335 10.875 38.4432 10.875C39.3722 10.875 40.1477 11.3693 40.2159 12.1705H44.5455Z" fill="#1F2933"/>
<path d="M46.6889 21H51.3935V14.1818C51.3935 12.6818 52.4247 11.6932 53.8139 11.6932C54.2997 11.6932 55.0838 11.7699 55.5526 11.9318V7.91761C55.1776 7.80682 54.7685 7.73864 54.3594 7.73864C52.9616 7.73864 51.8707 8.55682 51.3935 10.3977H51.2571V7.90909H46.6889V21Z" fill="#1F2933"/>
<path d="M57.0952 21H61.7997V7.90909H57.0952V21ZM59.4474 6.54545C60.7259 6.54545 61.7656 5.58239 61.7656 4.39773C61.7656 3.21307 60.7259 2.25 59.4474 2.25C58.169 2.25 57.1293 3.21307 57.1293 4.39773C57.1293 5.58239 58.169 6.54545 59.4474 6.54545Z" fill="#1F2933"/>
<path d="M64.1967 21H68.9013V14.1818C68.9013 12.6818 69.9325 11.6932 71.3217 11.6932C71.8075 11.6932 72.5916 11.7699 73.0604 11.9318V7.91761C72.6854 7.80682 72.2763 7.73864 71.8672 7.73864C70.4695 7.73864 69.3786 8.55682 68.9013 10.3977H68.7649V7.90909H64.1967V21Z" fill="#1F2933"/>
<path d="M77.6413 21.2045C79.3459 21.2045 80.6328 20.625 81.4254 19.1591H81.5277V21H85.9254V12.0341C85.9254 9.61364 83.6328 7.73864 79.8913 7.73864C75.9794 7.73864 74.0533 9.78409 73.8913 12.1705H78.2209C78.3317 11.3608 78.9283 10.9773 79.8232 10.9773C80.6413 10.9773 81.2209 11.3523 81.2209 12.0341V12.0682C81.2209 12.8267 80.3857 13.0653 78.1868 13.2273C75.4851 13.4233 73.38 14.5142 73.38 17.3864C73.38 19.9943 75.1357 21.2045 77.6413 21.2045ZM79.1754 18.2386C78.3743 18.2386 77.8118 17.8466 77.8118 17.1136C77.8118 16.4403 78.2891 15.9205 79.38 15.75C80.13 15.6307 80.7607 15.4773 81.255 15.2727V16.3636C81.255 17.5568 80.2408 18.2386 79.1754 18.2386Z" fill="#1F2933"/>
<path d="M88.1733 21H92.8778V13.3636C92.8778 12.2216 93.4744 11.5227 94.446 11.5227C95.4176 11.5227 96.0483 12.2216 96.0483 13.3636V21H100.548V13.3636C100.548 12.2216 101.145 11.5227 102.116 11.5227C103.088 11.5227 103.719 12.2216 103.719 13.3636V21H108.423V12.1705C108.423 9.4858 106.702 7.73864 104.196 7.73864C102.253 7.73864 100.685 8.79545 100.241 10.3977H100.105C99.8324 8.79545 98.3665 7.73864 96.5256 7.73864C94.7102 7.73864 93.321 8.76136 92.7756 10.3977H92.6392V7.90909H88.1733V21Z" fill="#1F2933"/>
<path d="M113.3 21.2727C114.553 21.2727 115.67 20.2159 115.687 18.8864C115.67 17.5909 114.553 16.5341 113.3 16.5341C111.979 16.5341 110.897 17.5909 110.914 18.8864C110.897 20.2159 111.979 21.2727 113.3 21.2727Z" fill="#1F2933"/>
</svg>
